<svg xmlns="http://www.w3.org/2000/svg" width="7" height="14" viewBox="0 0 7 14" fill="none">
  <path d="M 0.53 -0.53 C 0.237 -0.823 -0.237 -0.823 -0.53 -0.53 C -0.823 -0.237 -0.823 0.237 -0.53 0.53 L 0 0 L 0.53 -0.53 Z M 7 7 L 7.53 7.53 C 7.823 7.237 7.823 6.763 7.53 6.47 L 7 7 Z M -0.53 13.47 C -0.823 13.763 -0.823 14.237 -0.53 14.53 C -0.237 14.823 0.237 14.823 0.53 14.53 L 0 14 L -0.53 13.47 Z M 0 0 L -0.53 0.53 L 6.47 7.53 L 7 7 L 7.53 6.47 L 0.53 -0.53 L 0 0 Z M 7 7 L 6.47 6.47 L -0.53 13.47 L 0 14 L 0.53 14.53 L 7.53 7.53 L 7 7 Z" fill="currentColor" fill-rule="nonzero"></path>
</svg>