<svg xmlns="http://www.w3.org/2000/svg" width="12.728" height="12.728" viewBox="0 0 12.728 12.728" fill="none">
  <path d="M -0.53 12.198 C -0.823 12.491 -0.823 12.965 -0.53 13.258 C -0.237 13.551 0.237 13.551 0.53 13.258 L 0 12.728 L -0.53 12.198 Z M 12.728 0 L 13.478 0 C 13.478 -0.199 13.399 -0.39 13.258 -0.53 C 13.118 -0.671 12.927 -0.75 12.728 -0.75 L 12.728 0 Z M 2.828 -0.75 C 2.414 -0.75 2.078 -0.414 2.078 0 C 2.078 0.414 2.414 0.75 2.828 0.75 L 2.828 0 L 2.828 -0.75 Z M 11.978 9.899 C 11.978 10.314 12.314 10.649 12.728 10.649 C 13.142 10.649 13.478 10.314 13.478 9.899 L 12.728 9.899 L 11.978 9.899 Z M 0 12.728 L 0.53 13.258 L 13.258 0.53 L 12.728 0 L 12.198 -0.53 L -0.53 12.198 L 0 12.728 Z M 12.728 0 L 12.728 -0.75 L 2.828 -0.75 L 2.828 0 L 2.828 0.75 L 12.728 0.75 L 12.728 0 Z M 12.728 0 L 11.978 0 L 11.978 9.899 L 12.728 9.899 L 13.478 9.899 L 13.478 0 L 12.728 0 Z" fill="currentColor" fill-rule="nonzero"></path>
</svg>