<svg xmlns="http://www.w3.org/2000/svg" width="16.500" height="21" viewBox="0 0 16.500 21" fill="none">
  <path d="M 12 3.054 L 12 2.25 C 12 1.653 11.763 1.081 11.341 0.659 C 10.919 0.237 10.347 0 9.75 0 L 6.75 0 C 6.153 0 5.581 0.237 5.159 0.659 C 4.737 1.081 4.5 1.653 4.5 2.25 L 4.5 3.054 C 3.251 3.236 2.11 3.861 1.284 4.815 C 0.457 5.769 0.002 6.988 0 8.25 L 0 19.5 C 0 19.898 0.158 20.279 0.439 20.561 C 0.721 20.842 1.102 21 1.5 21 L 15 21 C 15.398 21 15.779 20.842 16.061 20.561 C 16.342 20.279 16.5 19.898 16.5 19.5 L 16.5 8.25 C 16.498 6.988 16.043 5.769 15.216 4.815 C 14.39 3.861 13.249 3.236 12 3.054 Z M 6 2.25 C 6 2.051 6.079 1.86 6.22 1.72 C 6.36 1.579 6.551 1.5 6.75 1.5 L 9.75 1.5 C 9.949 1.5 10.14 1.579 10.28 1.72 C 10.421 1.86 10.5 2.051 10.5 2.25 L 10.5 3 L 6 3 L 6 2.25 Z M 6.75 6 L 9.75 6 C 9.949 6 10.14 6.079 10.28 6.22 C 10.421 6.36 10.5 6.551 10.5 6.75 C 10.5 6.949 10.421 7.14 10.28 7.28 C 10.14 7.421 9.949 7.5 9.75 7.5 L 6.75 7.5 C 6.551 7.5 6.36 7.421 6.22 7.28 C 6.079 7.14 6 6.949 6 6.75 C 6 6.551 6.079 6.36 6.22 6.22 C 6.36 6.079 6.551 6 6.75 6 Z M 12.75 19.5 L 3.75 19.5 L 3.75 15.75 L 9 15.75 L 9 16.5 C 9 16.699 9.079 16.89 9.22 17.03 C 9.36 17.171 9.551 17.25 9.75 17.25 C 9.949 17.25 10.14 17.171 10.28 17.03 C 10.421 16.89 10.5 16.699 10.5 16.5 L 10.5 15.75 L 12.75 15.75 L 12.75 19.5 Z M 12.75 14.25 L 3.75 14.25 L 3.75 13.5 C 3.75 13.102 3.908 12.721 4.189 12.439 C 4.471 12.158 4.852 12 5.25 12 L 11.25 12 C 11.648 12 12.029 12.158 12.311 12.439 C 12.592 12.721 12.75 13.102 12.75 13.5 L 12.75 14.25 Z" fill="currentColor" fill-rule="nonzero"></path>
</svg>