<svg xmlns="http://www.w3.org/2000/svg" width="22.500" height="16.500" viewBox="0 0 22.500 16.500" fill="none">
  <path d="M 18.75 3 L 1.5 3 L 1.5 0.75 C 1.5 0.551 1.421 0.36 1.28 0.22 C 1.14 0.079 0.949 0 0.75 0 C 0.551 0 0.36 0.079 0.22 0.22 C 0.079 0.36 0 0.551 0 0.75 L 0 15.75 C 0 15.949 0.079 16.14 0.22 16.28 C 0.36 16.421 0.551 16.5 0.75 16.5 C 0.949 16.5 1.14 16.421 1.28 16.28 C 1.421 16.14 1.5 15.949 1.5 15.75 L 1.5 12.75 L 21 12.75 L 21 15.75 C 21 15.949 21.079 16.14 21.22 16.28 C 21.36 16.421 21.551 16.5 21.75 16.5 C 21.949 16.5 22.14 16.421 22.28 16.28 C 22.421 16.14 22.5 15.949 22.5 15.75 L 22.5 6.75 C 22.5 5.755 22.105 4.802 21.402 4.098 C 20.698 3.395 19.745 3 18.75 3 Z M 1.5 4.5 L 8.25 4.5 L 8.25 11.25 L 1.5 11.25 L 1.5 4.5 Z M 9.75 11.25 L 9.75 4.5 L 18.75 4.5 C 19.347 4.5 19.919 4.737 20.341 5.159 C 20.763 5.581 21 6.153 21 6.75 L 21 11.25 L 9.75 11.25 Z" fill="currentColor" fill-rule="nonzero"></path>
</svg>
