<svg xmlns="http://www.w3.org/2000/svg" width="18.041" height="19.499" viewBox="0 0 18.041 19.499" fill="none">
  <path d="M 9.413 0.111 C 9.295 0.038 9.159 0 9.02 0 C 8.882 0 8.746 0.038 8.628 0.111 C 7.687 0.722 6.82 1.44 6.043 2.25 C 4.311 4.043 3.395 5.99 3.395 7.875 C 3.395 9.366 3.988 10.797 5.043 11.852 C 6.098 12.907 7.529 13.5 9.02 13.5 C 10.512 13.5 11.943 12.907 12.998 11.852 C 14.053 10.797 14.645 9.366 14.645 7.875 C 14.645 3.382 9.627 0.242 9.413 0.111 Z M 9.02 12 C 8.424 12 7.851 11.762 7.429 11.341 C 7.008 10.919 6.77 10.346 6.77 9.75 C 6.77 7.5 9.02 6 9.02 6 C 9.02 6 11.27 7.5 11.27 9.75 C 11.27 10.346 11.033 10.919 10.611 11.341 C 10.19 11.762 9.617 12 9.02 12 Z M 17.985 18.976 C 17.955 19.07 17.907 19.157 17.843 19.233 C 17.78 19.308 17.702 19.37 17.615 19.415 C 17.527 19.461 17.432 19.488 17.334 19.497 C 17.235 19.505 17.137 19.494 17.043 19.464 L 9.02 16.911 L 0.998 19.464 C 0.904 19.494 0.806 19.505 0.707 19.496 C 0.609 19.488 0.514 19.461 0.426 19.415 C 0.339 19.37 0.261 19.308 0.198 19.233 C 0.134 19.157 0.086 19.07 0.056 18.976 C 0.026 18.883 0.015 18.784 0.024 18.686 C 0.032 18.587 0.059 18.492 0.105 18.404 C 0.15 18.317 0.212 18.239 0.287 18.176 C 0.363 18.112 0.45 18.064 0.544 18.034 L 6.544 16.125 L 0.544 14.214 C 0.447 14.186 0.357 14.14 0.279 14.077 C 0.201 14.014 0.136 13.936 0.089 13.847 C 0.042 13.759 0.012 13.662 0.003 13.562 C -0.006 13.462 0.005 13.361 0.035 13.265 C 0.066 13.17 0.115 13.081 0.18 13.005 C 0.246 12.929 0.325 12.866 0.415 12.822 C 0.505 12.777 0.603 12.751 0.703 12.744 C 0.803 12.738 0.904 12.752 0.998 12.785 L 9.02 15.337 L 17.043 12.785 C 17.137 12.752 17.238 12.738 17.338 12.744 C 17.438 12.751 17.536 12.777 17.626 12.822 C 17.715 12.866 17.795 12.929 17.861 13.005 C 17.926 13.081 17.975 13.17 18.006 13.265 C 18.036 13.361 18.047 13.462 18.038 13.562 C 18.029 13.662 17.999 13.759 17.952 13.847 C 17.905 13.936 17.84 14.014 17.762 14.077 C 17.684 14.14 17.594 14.186 17.497 14.214 L 11.497 16.125 L 17.497 18.034 C 17.591 18.064 17.678 18.112 17.754 18.176 C 17.829 18.239 17.891 18.317 17.936 18.404 C 17.982 18.492 18.009 18.587 18.017 18.686 C 18.026 18.784 18.015 18.883 17.985 18.976 Z" fill="currentColor" fill-rule="nonzero"></path>
</svg>
