<svg xmlns="http://www.w3.org/2000/svg" width="18.751" height="13.501" viewBox="0 0 18.751 13.501" fill="none">
  <path d="M 18.531 1.281 L 6.531 13.281 C 6.461 13.351 6.379 13.406 6.288 13.444 C 6.197 13.482 6.099 13.501 6 13.501 C 5.902 13.501 5.804 13.482 5.713 13.444 C 5.622 13.406 5.539 13.351 5.47 13.281 L 0.22 8.031 C 0.079 7.89 0 7.699 0 7.5 C 0 7.301 0.079 7.111 0.22 6.97 C 0.361 6.829 0.551 6.75 0.75 6.75 C 0.949 6.75 1.14 6.829 1.281 6.97 L 6 11.69 L 17.47 0.22 C 17.611 0.079 17.801 0 18 0 C 18.199 0 18.39 0.079 18.531 0.22 C 18.672 0.361 18.751 0.551 18.751 0.75 C 18.751 0.949 18.672 1.14 18.531 1.281 Z" fill="currentColor" fill-rule="nonzero"></path>
</svg>