<svg xmlns="http://www.w3.org/2000/svg" width="19.500" height="19.500" viewBox="0 0 19.500 19.500" fill="none">
  <path d="M 14.031 6.969 C 14.1 7.039 14.156 7.122 14.193 7.213 C 14.231 7.304 14.251 7.401 14.251 7.5 C 14.251 7.599 14.231 7.696 14.193 7.787 C 14.156 7.878 14.1 7.961 14.031 8.031 L 8.781 13.281 C 8.711 13.35 8.628 13.406 8.537 13.443 C 8.446 13.481 8.349 13.501 8.25 13.501 C 8.151 13.501 8.054 13.481 7.963 13.443 C 7.872 13.406 7.789 13.35 7.719 13.281 L 5.469 11.031 C 5.329 10.89 5.25 10.699 5.25 10.5 C 5.25 10.301 5.329 10.11 5.469 9.969 C 5.61 9.829 5.801 9.75 6 9.75 C 6.199 9.75 6.39 9.829 6.531 9.969 L 8.25 11.69 L 12.969 6.969 C 13.039 6.9 13.122 6.844 13.213 6.807 C 13.304 6.769 13.401 6.749 13.5 6.749 C 13.599 6.749 13.696 6.769 13.787 6.807 C 13.878 6.844 13.961 6.9 14.031 6.969 Z M 19.5 9.75 C 19.5 11.678 18.928 13.563 17.857 15.167 C 16.785 16.77 15.263 18.02 13.481 18.758 C 11.7 19.496 9.739 19.689 7.848 19.313 C 5.957 18.936 4.219 18.008 2.856 16.644 C 1.492 15.281 0.564 13.543 0.187 11.652 C -0.189 9.761 0.004 7.8 0.742 6.019 C 1.48 4.237 2.73 2.715 4.333 1.643 C 5.937 0.572 7.822 0 9.75 0 C 12.335 0.003 14.813 1.031 16.641 2.859 C 18.469 4.687 19.497 7.165 19.5 9.75 Z M 18 9.75 C 18 8.118 17.516 6.523 16.61 5.167 C 15.703 3.81 14.415 2.752 12.907 2.128 C 11.4 1.504 9.741 1.34 8.141 1.659 C 6.54 1.977 5.07 2.763 3.916 3.916 C 2.763 5.07 1.977 6.54 1.659 8.141 C 1.34 9.741 1.504 11.4 2.128 12.907 C 2.752 14.415 3.81 15.703 5.167 16.61 C 6.523 17.516 8.118 18 9.75 18 C 11.937 17.998 14.034 17.128 15.581 15.581 C 17.128 14.034 17.998 11.937 18 9.75 Z" fill="currentColor" fill-rule="nonzero"></path>
</svg>