<svg xmlns="http://www.w3.org/2000/svg" width="17.250" height="18.762" viewBox="0 0 17.250 18.762" fill="none">
  <path d="M 3.75 5.262 L 3.75 0.762 C 3.75 0.563 3.829 0.372 3.97 0.232 C 4.11 0.091 4.301 0.012 4.5 0.012 C 4.699 0.012 4.89 0.091 5.03 0.232 C 5.171 0.372 5.25 0.563 5.25 0.762 L 5.25 5.262 C 5.25 5.461 5.171 5.652 5.03 5.792 C 4.89 5.933 4.699 6.012 4.5 6.012 C 4.301 6.012 4.11 5.933 3.97 5.792 C 3.829 5.652 3.75 5.461 3.75 5.262 Z M 17.25 0.762 L 17.25 18.012 C 17.25 18.211 17.171 18.402 17.03 18.542 C 16.89 18.683 16.699 18.762 16.5 18.762 C 16.301 18.762 16.11 18.683 15.97 18.542 C 15.829 18.402 15.75 18.211 15.75 18.012 L 15.75 13.512 L 11.25 13.512 C 11.051 13.512 10.86 13.433 10.72 13.292 C 10.579 13.152 10.5 12.961 10.5 12.762 C 10.535 10.966 10.762 9.178 11.177 7.43 C 12.094 3.634 13.832 1.089 16.205 0.073 C 16.319 0.024 16.443 0.004 16.567 0.015 C 16.69 0.027 16.809 0.068 16.913 0.136 C 17.016 0.205 17.101 0.298 17.16 0.407 C 17.219 0.516 17.25 0.638 17.25 0.762 Z M 15.75 2.065 C 12.734 4.369 12.143 9.98 12.028 12.012 L 15.75 12.012 L 15.75 2.065 Z M 8.24 0.639 C 8.225 0.541 8.191 0.446 8.139 0.361 C 8.088 0.276 8.02 0.202 7.939 0.143 C 7.859 0.085 7.767 0.043 7.67 0.02 C 7.573 -0.003 7.473 -0.006 7.375 0.01 C 7.276 0.027 7.182 0.062 7.098 0.115 C 7.014 0.168 6.941 0.238 6.884 0.319 C 6.827 0.401 6.786 0.493 6.765 0.59 C 6.744 0.687 6.742 0.788 6.76 0.886 L 7.5 5.321 C 7.5 6.117 7.184 6.88 6.621 7.443 C 6.059 8.005 5.296 8.321 4.5 8.321 C 3.704 8.321 2.941 8.005 2.379 7.443 C 1.816 6.88 1.5 6.117 1.5 5.321 L 2.239 0.886 C 2.257 0.788 2.255 0.687 2.234 0.59 C 2.213 0.493 2.172 0.401 2.115 0.319 C 2.058 0.238 1.985 0.168 1.901 0.115 C 1.817 0.062 1.723 0.027 1.624 0.01 C 1.526 -0.006 1.426 -0.003 1.329 0.02 C 1.232 0.043 1.141 0.085 1.06 0.143 C 0.98 0.202 0.911 0.276 0.86 0.361 C 0.808 0.446 0.774 0.541 0.759 0.639 L 0.009 5.139 C 0.003 5.18 0 5.221 0 5.262 C 0.002 6.325 0.379 7.353 1.065 8.165 C 1.751 8.977 2.702 9.52 3.75 9.698 L 3.75 18.012 C 3.75 18.211 3.829 18.402 3.97 18.542 C 4.11 18.683 4.301 18.762 4.5 18.762 C 4.699 18.762 4.89 18.683 5.03 18.542 C 5.171 18.402 5.25 18.211 5.25 18.012 L 5.25 9.698 C 6.298 9.52 7.249 8.977 7.935 8.165 C 8.621 7.353 8.999 6.325 9 5.262 C 9 5.221 8.996 5.18 8.99 5.139 L 8.24 0.639 Z" fill="currentColor" fill-rule="nonzero"></path>
</svg>
