<svg xmlns="http://www.w3.org/2000/svg" width="19.500" height="19.434" viewBox="0 0 19.500 19.434" fill="none">
  <path d="M 19.5 9.749 C 19.497 12.132 18.623 14.431 17.042 16.214 C 15.461 17.998 13.283 19.141 10.917 19.43 C 10.864 19.435 10.811 19.43 10.761 19.414 C 10.71 19.398 10.664 19.371 10.624 19.336 C 10.585 19.3 10.553 19.257 10.532 19.208 C 10.511 19.16 10.5 19.108 10.5 19.055 L 10.5 11.999 L 12.75 11.999 C 12.853 11.999 12.955 11.978 13.049 11.937 C 13.143 11.897 13.228 11.837 13.299 11.762 C 13.369 11.687 13.423 11.598 13.458 11.501 C 13.492 11.405 13.507 11.302 13.5 11.199 C 13.483 11.006 13.394 10.827 13.251 10.697 C 13.107 10.567 12.92 10.496 12.727 10.499 L 10.5 10.499 L 10.5 8.249 C 10.5 7.851 10.658 7.47 10.939 7.188 C 11.221 6.907 11.602 6.749 12 6.749 L 13.5 6.749 C 13.603 6.749 13.705 6.728 13.799 6.687 C 13.893 6.647 13.978 6.587 14.049 6.512 C 14.119 6.437 14.173 6.348 14.208 6.251 C 14.242 6.155 14.257 6.052 14.25 5.949 C 14.233 5.756 14.144 5.576 14 5.446 C 13.856 5.316 13.669 5.246 13.475 5.249 L 12 5.249 C 11.204 5.249 10.441 5.565 9.879 6.128 C 9.316 6.69 9 7.453 9 8.249 L 9 10.499 L 6.75 10.499 C 6.647 10.499 6.545 10.52 6.451 10.56 C 6.357 10.601 6.272 10.661 6.201 10.736 C 6.131 10.811 6.077 10.899 6.042 10.996 C 6.008 11.093 5.993 11.196 6 11.299 C 6.017 11.492 6.106 11.671 6.25 11.801 C 6.394 11.931 6.581 12.002 6.775 11.999 L 9 11.999 L 9 19.056 C 9 19.109 8.989 19.162 8.968 19.21 C 8.947 19.259 8.915 19.302 8.876 19.337 C 8.837 19.373 8.79 19.399 8.74 19.416 C 8.69 19.432 8.636 19.437 8.584 19.431 C 6.155 19.136 3.926 17.939 2.337 16.078 C 0.749 14.217 -0.083 11.827 0.007 9.382 C 0.194 4.32 4.295 0.204 9.361 0.007 C 10.673 -0.043 11.981 0.171 13.208 0.637 C 14.435 1.104 15.555 1.813 16.502 2.722 C 17.448 3.632 18.202 4.723 18.717 5.93 C 19.232 7.137 19.498 8.436 19.5 9.749 Z" fill="currentColor" fill-rule="nonzero"></path>
</svg>