<svg xmlns="http://www.w3.org/2000/svg" width="19.500" height="18" viewBox="0 0 19.500 18" fill="none">
  <path d="M 18 3 L 14.25 3 L 14.25 2.25 C 14.25 1.653 14.013 1.081 13.591 0.659 C 13.169 0.237 12.597 0 12 0 L 7.5 0 C 6.903 0 6.331 0.237 5.909 0.659 C 5.487 1.081 5.25 1.653 5.25 2.25 L 5.25 3 L 1.5 3 C 1.102 3 0.721 3.158 0.439 3.439 C 0.158 3.721 0 4.102 0 4.5 L 0 16.5 C 0 16.898 0.158 17.279 0.439 17.561 C 0.721 17.842 1.102 18 1.5 18 L 18 18 C 18.398 18 18.779 17.842 19.061 17.561 C 19.342 17.279 19.5 16.898 19.5 16.5 L 19.5 4.5 C 19.5 4.102 19.342 3.721 19.061 3.439 C 18.779 3.158 18.398 3 18 3 Z M 6.75 2.25 C 6.75 2.051 6.829 1.86 6.97 1.72 C 7.11 1.579 7.301 1.5 7.5 1.5 L 12 1.5 C 12.199 1.5 12.39 1.579 12.53 1.72 C 12.671 1.86 12.75 2.051 12.75 2.25 L 12.75 3 L 6.75 3 L 6.75 2.25 Z M 18 16.5 L 1.5 16.5 L 1.5 4.5 L 18 4.5 L 18 16.5 Z M 12.75 10.5 C 12.75 10.699 12.671 10.89 12.53 11.03 C 12.39 11.171 12.199 11.25 12 11.25 L 10.5 11.25 L 10.5 12.75 C 10.5 12.949 10.421 13.14 10.28 13.28 C 10.14 13.421 9.949 13.5 9.75 13.5 C 9.551 13.5 9.36 13.421 9.22 13.28 C 9.079 13.14 9 12.949 9 12.75 L 9 11.25 L 7.5 11.25 C 7.301 11.25 7.11 11.171 6.97 11.03 C 6.829 10.89 6.75 10.699 6.75 10.5 C 6.75 10.301 6.829 10.11 6.97 9.97 C 7.11 9.829 7.301 9.75 7.5 9.75 L 9 9.75 L 9 8.25 C 9 8.051 9.079 7.86 9.22 7.72 C 9.36 7.579 9.551 7.5 9.75 7.5 C 9.949 7.5 10.14 7.579 10.28 7.72 C 10.421 7.86 10.5 8.051 10.5 8.25 L 10.5 9.75 L 12 9.75 C 12.199 9.75 12.39 9.829 12.53 9.97 C 12.671 10.11 12.75 10.301 12.75 10.5 Z" fill="currentColor" fill-rule="nonzero"></path>
</svg>