<svg xmlns="http://www.w3.org/2000/svg" width="22.504" height="17.250" viewBox="0 0 22.504 17.250" fill="none">
  <path d="M 21.593 10.224 C 21.348 10.035 21.067 9.898 20.767 9.821 C 20.467 9.745 20.155 9.73 19.849 9.777 C 21.609 8 22.5 6.233 22.5 4.5 C 22.5 2.019 20.504 0 18.051 0 C 17.4 -0.004 16.756 0.134 16.164 0.406 C 15.572 0.677 15.047 1.075 14.625 1.57 C 14.203 1.075 13.678 0.677 13.086 0.406 C 12.494 0.134 11.85 -0.004 11.199 0 C 8.746 0 6.75 2.019 6.75 4.5 C 6.75 5.531 7.054 6.534 7.693 7.594 C 7.169 7.727 6.692 7.999 6.31 8.381 L 4.19 10.5 L 1.5 10.5 C 1.102 10.5 0.721 10.658 0.439 10.939 C 0.158 11.221 0 11.602 0 12 L 0 15.75 C 0 16.148 0.158 16.529 0.439 16.811 C 0.721 17.092 1.102 17.25 1.5 17.25 L 11.25 17.25 C 11.311 17.25 11.372 17.243 11.432 17.228 L 17.432 15.728 C 17.47 15.718 17.507 15.706 17.543 15.69 L 21.188 14.139 L 21.229 14.121 C 21.579 13.946 21.879 13.684 22.1 13.361 C 22.322 13.039 22.457 12.665 22.494 12.275 C 22.531 11.885 22.468 11.492 22.311 11.134 C 22.154 10.775 21.908 10.462 21.597 10.224 L 21.593 10.224 Z M 20.572 12.77 L 17.009 14.287 L 11.156 15.75 L 5.25 15.75 L 5.25 11.56 L 7.372 9.44 C 7.51 9.3 7.676 9.189 7.858 9.113 C 8.04 9.038 8.235 8.999 8.432 9 L 13.125 9 C 13.423 9 13.71 9.119 13.92 9.33 C 14.131 9.541 14.25 9.827 14.25 10.125 C 14.25 10.423 14.131 10.71 13.92 10.921 C 13.71 11.132 13.423 11.25 13.125 11.25 L 10.5 11.25 C 10.301 11.25 10.11 11.329 9.97 11.47 C 9.829 11.61 9.75 11.801 9.75 12 C 9.75 12.199 9.829 12.39 9.97 12.53 C 10.11 12.671 10.301 12.75 10.5 12.75 L 13.5 12.75 C 13.556 12.75 13.613 12.744 13.668 12.731 L 19.949 11.287 L 19.978 11.279 C 20.17 11.226 20.375 11.245 20.553 11.334 C 20.731 11.423 20.87 11.574 20.943 11.759 C 21.017 11.944 21.019 12.15 20.95 12.336 C 20.881 12.523 20.745 12.677 20.569 12.77 L 20.572 12.77 Z" fill="currentColor" fill-rule="nonzero"></path>
</svg>
