<svg xmlns="http://www.w3.org/2000/svg" width="19.500" height="19.500" viewBox="0 0 19.500 19.500" fill="none">
  <path d="M 9.75 0 C 7.822 0 5.937 0.572 4.333 1.643 C 2.73 2.715 1.48 4.237 0.742 6.019 C 0.004 7.8 -0.189 9.761 0.187 11.652 C 0.564 13.543 1.492 15.281 2.856 16.644 C 4.219 18.008 5.957 18.936 7.848 19.313 C 9.739 19.689 11.7 19.496 13.481 18.758 C 15.263 18.02 16.785 16.77 17.857 15.167 C 18.928 13.563 19.5 11.678 19.5 9.75 C 19.497 7.165 18.469 4.687 16.641 2.859 C 14.813 1.031 12.335 0.003 9.75 0 Z M 9.375 4.5 C 9.598 4.5 9.815 4.566 10 4.69 C 10.185 4.813 10.329 4.989 10.414 5.194 C 10.5 5.4 10.522 5.626 10.478 5.844 C 10.435 6.063 10.328 6.263 10.17 6.42 C 10.013 6.578 9.813 6.685 9.594 6.728 C 9.376 6.772 9.15 6.75 8.944 6.664 C 8.739 6.579 8.563 6.435 8.44 6.25 C 8.316 6.065 8.25 5.848 8.25 5.625 C 8.25 5.327 8.369 5.04 8.58 4.83 C 8.79 4.619 9.077 4.5 9.375 4.5 Z M 10.5 15 C 10.102 15 9.721 14.842 9.439 14.561 C 9.158 14.279 9 13.898 9 13.5 L 9 9.75 C 8.801 9.75 8.61 9.671 8.47 9.53 C 8.329 9.39 8.25 9.199 8.25 9 C 8.25 8.801 8.329 8.61 8.47 8.47 C 8.61 8.329 8.801 8.25 9 8.25 C 9.398 8.25 9.779 8.408 10.061 8.689 C 10.342 8.971 10.5 9.352 10.5 9.75 L 10.5 13.5 C 10.699 13.5 10.89 13.579 11.03 13.72 C 11.171 13.86 11.25 14.051 11.25 14.25 C 11.25 14.449 11.171 14.64 11.03 14.78 C 10.89 14.921 10.699 15 10.5 15 Z" fill="currentColor" fill-rule="nonzero"></path>
</svg>