<svg xmlns="http://www.w3.org/2000/svg" width="19.500" height="19.500" viewBox="0 0 19.500 19.500" fill="none">
  <path d="M 14.25 0 L 5.25 0 C 3.858 0.001 2.524 0.555 1.539 1.539 C 0.555 2.524 0.001 3.858 0 5.25 L 0 14.25 C 0.001 15.642 0.555 16.976 1.539 17.961 C 2.524 18.945 3.858 19.499 5.25 19.5 L 14.25 19.5 C 15.642 19.499 16.976 18.945 17.961 17.961 C 18.945 16.976 19.499 15.642 19.5 14.25 L 19.5 5.25 C 19.499 3.858 18.945 2.524 17.961 1.539 C 16.976 0.555 15.642 0.001 14.25 0 Z M 9.75 14.25 C 8.86 14.25 7.99 13.986 7.25 13.492 C 6.51 12.997 5.933 12.294 5.593 11.472 C 5.252 10.65 5.163 9.745 5.336 8.872 C 5.51 7.999 5.939 7.197 6.568 6.568 C 7.197 5.939 7.999 5.51 8.872 5.336 C 9.745 5.163 10.65 5.252 11.472 5.593 C 12.294 5.933 12.997 6.51 13.492 7.25 C 13.986 7.99 14.25 8.86 14.25 9.75 C 14.249 10.943 13.774 12.087 12.931 12.931 C 12.087 13.774 10.943 14.249 9.75 14.25 Z M 15.375 5.25 C 15.152 5.25 14.935 5.184 14.75 5.06 C 14.565 4.937 14.421 4.761 14.336 4.556 C 14.25 4.35 14.228 4.124 14.272 3.906 C 14.315 3.687 14.422 3.487 14.58 3.33 C 14.737 3.172 14.937 3.065 15.156 3.022 C 15.374 2.978 15.6 3 15.806 3.086 C 16.011 3.171 16.187 3.315 16.31 3.5 C 16.434 3.685 16.5 3.902 16.5 4.125 C 16.5 4.423 16.381 4.71 16.17 4.92 C 15.96 5.131 15.673 5.25 15.375 5.25 Z M 12.75 9.75 C 12.75 10.343 12.574 10.923 12.244 11.417 C 11.915 11.91 11.446 12.295 10.898 12.522 C 10.35 12.749 9.747 12.808 9.165 12.692 C 8.583 12.577 8.048 12.291 7.629 11.871 C 7.209 11.452 6.923 10.917 6.808 10.335 C 6.692 9.753 6.751 9.15 6.978 8.602 C 7.205 8.054 7.59 7.585 8.083 7.256 C 8.577 6.926 9.157 6.75 9.75 6.75 C 10.546 6.75 11.309 7.066 11.871 7.629 C 12.434 8.191 12.75 8.954 12.75 9.75 Z" fill="currentColor" fill-rule="nonzero"></path>
</svg>