<svg xmlns="http://www.w3.org/2000/svg" width="20.200" height="21.023" viewBox="0 0 20.200 21.023" fill="none">
  <path d="M 11.521 4.892 C 11.642 4.892 11.712 4.811 11.732 4.701 C 12.044 3.033 12.033 2.993 13.771 2.652 C 13.892 2.632 13.962 2.571 13.962 2.451 C 13.962 2.32 13.892 2.26 13.771 2.24 C 12.033 1.888 12.044 1.858 11.732 0.191 C 11.712 0.08 11.642 0 11.521 0 C 11.401 0 11.34 0.08 11.32 0.191 C 10.999 1.858 11.019 1.888 9.271 2.24 C 9.161 2.26 9.08 2.32 9.08 2.451 C 9.08 2.571 9.161 2.632 9.271 2.652 C 11.029 2.993 10.999 3.033 11.32 4.701 C 11.34 4.811 11.401 4.892 11.521 4.892 Z M 16.333 11.682 C 16.513 11.682 16.644 11.551 16.664 11.36 C 16.996 8.658 17.106 8.618 19.848 8.166 C 20.069 8.126 20.2 8.026 20.2 7.825 C 20.2 7.634 20.069 7.513 19.888 7.483 C 17.106 7.011 16.996 6.991 16.664 4.289 C 16.644 4.098 16.513 3.968 16.333 3.968 C 16.142 3.968 16.011 4.098 15.991 4.279 C 15.64 6.981 15.559 7.011 12.767 7.483 C 12.586 7.513 12.455 7.634 12.455 7.825 C 12.455 8.016 12.586 8.126 12.767 8.166 C 15.559 8.618 15.66 8.658 15.991 11.381 C 16.011 11.551 16.142 11.682 16.333 11.682 Z M 8.779 21.023 C 12.455 21.023 15.429 19.175 16.785 16.031 C 16.965 15.599 16.905 15.268 16.714 15.067 C 16.533 14.896 16.232 14.856 15.871 14.997 C 15.117 15.298 14.193 15.469 13.038 15.469 C 8.548 15.469 5.655 12.666 5.655 8.257 C 5.655 7.041 5.886 5.836 6.198 5.203 C 6.398 4.801 6.378 4.46 6.208 4.249 C 6.017 4.028 5.675 3.958 5.203 4.148 C 2.119 5.404 0 8.618 0 12.375 C 0 17.267 3.596 21.023 8.779 21.023 Z M 8.799 19.497 C 4.51 19.497 1.527 16.373 1.527 12.254 C 1.527 9.723 2.702 7.493 4.57 6.067 C 4.329 6.72 4.189 7.724 4.189 8.689 C 4.189 13.631 7.604 16.945 12.656 16.945 C 13.56 16.945 14.384 16.835 14.806 16.684 C 13.55 18.422 11.31 19.497 8.799 19.497 Z" fill="currentColor" fill-rule="nonzero"></path>
</svg>
