<svg xmlns="http://www.w3.org/2000/svg" width="18.750" height="18.750" viewBox="0 0 18.750 18.750" fill="none">
  <path d="M 17.847 12.605 L 13.431 10.626 L 13.418 10.621 C 13.189 10.523 12.939 10.483 12.691 10.506 C 12.442 10.529 12.204 10.614 11.996 10.752 C 11.972 10.768 11.948 10.786 11.926 10.804 L 9.644 12.75 C 8.198 12.048 6.706 10.566 6.004 9.139 L 7.952 6.823 C 7.971 6.799 7.988 6.776 8.005 6.751 C 8.141 6.544 8.223 6.307 8.244 6.06 C 8.266 5.814 8.226 5.566 8.129 5.339 L 8.129 5.328 L 6.144 0.904 C 6.016 0.607 5.794 0.359 5.514 0.198 C 5.233 0.038 4.907 -0.028 4.586 0.011 C 3.316 0.178 2.15 0.802 1.306 1.766 C 0.462 2.73 -0.002 3.969 0 5.25 C 0 12.694 6.056 18.75 13.5 18.75 C 14.781 18.752 16.02 18.288 16.984 17.444 C 17.948 16.6 18.572 15.434 18.739 14.164 C 18.778 13.842 18.712 13.517 18.552 13.236 C 18.391 12.956 18.144 12.734 17.847 12.605 Z M 13.5 17.25 C 10.318 17.246 7.268 15.981 5.019 13.731 C 2.769 11.482 1.503 8.431 1.5 5.25 C 1.496 4.334 1.826 3.449 2.428 2.759 C 3.029 2.069 3.862 1.621 4.769 1.5 C 4.769 1.504 4.769 1.507 4.769 1.511 L 6.738 5.917 L 4.8 8.237 C 4.78 8.259 4.762 8.283 4.747 8.309 C 4.605 8.525 4.523 8.775 4.506 9.032 C 4.49 9.29 4.54 9.548 4.653 9.781 C 5.502 11.518 7.253 13.255 9.008 14.104 C 9.243 14.215 9.502 14.264 9.761 14.245 C 10.02 14.226 10.269 14.141 10.485 13.997 C 10.509 13.98 10.532 13.963 10.554 13.944 L 12.833 12 L 17.24 13.973 C 17.24 13.973 17.247 13.973 17.25 13.973 C 17.13 14.882 16.683 15.716 15.993 16.319 C 15.303 16.922 14.417 17.253 13.5 17.25 Z" fill="currentColor" fill-rule="nonzero"></path>
</svg>