<svg xmlns="http://www.w3.org/2000/svg" width="18.764" height="20.250" viewBox="0 0 18.764 20.250" fill="none">
  <path d="M 12.004 6 C 12.597 6 13.177 5.824 13.67 5.494 C 14.164 5.165 14.548 4.696 14.775 4.148 C 15.002 3.6 15.062 2.997 14.946 2.415 C 14.83 1.833 14.545 1.298 14.125 0.879 C 13.706 0.459 13.171 0.173 12.589 0.058 C 12.007 -0.058 11.404 0.001 10.856 0.228 C 10.308 0.455 9.839 0.84 9.509 1.333 C 9.18 1.827 9.004 2.407 9.004 3 C 9.004 3.796 9.32 4.559 9.882 5.121 C 10.445 5.684 11.208 6 12.004 6 Z M 12.004 1.5 C 12.3 1.5 12.59 1.588 12.837 1.753 C 13.084 1.918 13.276 2.152 13.39 2.426 C 13.503 2.7 13.533 3.002 13.475 3.293 C 13.417 3.584 13.274 3.851 13.064 4.061 C 12.855 4.27 12.587 4.413 12.296 4.471 C 12.005 4.529 11.704 4.499 11.43 4.386 C 11.156 4.272 10.921 4.08 10.757 3.833 C 10.592 3.587 10.504 3.297 10.504 3 C 10.504 2.602 10.662 2.221 10.943 1.939 C 11.224 1.658 11.606 1.5 12.004 1.5 Z M 18.314 10.939 C 18.257 10.965 17.612 11.246 16.47 11.246 C 15.172 11.246 13.231 10.883 10.78 9.371 C 10.407 10.43 9.923 11.446 9.336 12.403 C 10.391 12.728 11.383 13.229 12.271 13.885 C 14.059 15.248 15.004 17.189 15.004 19.5 C 15.004 19.699 14.925 19.89 14.784 20.03 C 14.643 20.171 14.453 20.25 14.254 20.25 C 14.055 20.25 13.864 20.171 13.723 20.03 C 13.583 19.89 13.504 19.699 13.504 19.5 C 13.504 15.591 10.252 14.183 8.428 13.702 C 8.377 13.767 8.323 13.834 8.27 13.898 C 6.428 16.13 4.121 17.29 1.554 17.29 C 1.262 17.292 0.97 17.278 0.679 17.25 C 0.48 17.23 0.297 17.132 0.17 16.977 C 0.044 16.823 -0.016 16.624 0.004 16.425 C 0.024 16.226 0.122 16.043 0.276 15.917 C 0.431 15.79 0.63 15.73 0.829 15.75 C 3.259 15.992 5.373 15.048 7.11 12.938 C 8.281 11.518 9.079 9.787 9.477 8.531 C 5.828 6.408 3.498 8.215 3.472 8.235 C 3.396 8.3 3.307 8.349 3.212 8.38 C 3.116 8.41 3.015 8.421 2.915 8.411 C 2.815 8.402 2.718 8.372 2.629 8.325 C 2.541 8.277 2.463 8.212 2.4 8.134 C 2.337 8.055 2.291 7.965 2.264 7.868 C 2.236 7.772 2.229 7.67 2.241 7.571 C 2.254 7.471 2.286 7.375 2.337 7.288 C 2.387 7.201 2.455 7.125 2.535 7.065 C 2.676 6.953 6.024 4.346 10.927 7.681 C 15.189 10.579 17.67 9.585 17.693 9.574 C 17.783 9.531 17.881 9.507 17.98 9.503 C 18.079 9.498 18.178 9.514 18.272 9.548 C 18.365 9.582 18.451 9.634 18.523 9.702 C 18.596 9.769 18.655 9.851 18.696 9.941 C 18.737 10.032 18.76 10.129 18.763 10.229 C 18.766 10.328 18.75 10.427 18.714 10.52 C 18.679 10.612 18.625 10.697 18.557 10.769 C 18.488 10.841 18.406 10.899 18.315 10.939 L 18.314 10.939 Z" fill="currentColor" fill-rule="nonzero"></path>
</svg>
