<svg xmlns="http://www.w3.org/2000/svg" width="18" height="18.750" viewBox="0 0 18 18.750" fill="none">
  <path d="M 16.5 0 L 1.5 0 C 1.102 0 0.721 0.158 0.439 0.439 C 0.158 0.721 0 1.102 0 1.5 L 0 6.75 C 0 11.693 2.392 14.688 4.4 16.33 C 6.562 18.098 8.712 18.698 8.806 18.724 C 8.935 18.759 9.071 18.759 9.2 18.724 C 9.293 18.698 11.441 18.098 13.606 16.33 C 15.608 14.688 18 11.693 18 6.75 L 18 1.5 C 18 1.102 17.842 0.721 17.561 0.439 C 17.279 0.158 16.898 0 16.5 0 Z M 16.5 6.75 C 16.5 10.225 15.219 13.046 12.694 15.133 C 11.594 16.038 10.344 16.743 9 17.214 C 7.674 16.751 6.439 16.059 5.351 15.17 C 2.796 13.079 1.5 10.247 1.5 6.75 L 1.5 1.5 L 16.5 1.5 L 16.5 6.75 Z M 4.719 9.531 C 4.579 9.39 4.5 9.199 4.5 9 C 4.5 8.801 4.579 8.61 4.719 8.469 C 4.86 8.329 5.051 8.25 5.25 8.25 C 5.449 8.25 5.64 8.329 5.781 8.469 L 7.5 10.19 L 12.219 5.469 C 12.289 5.4 12.372 5.344 12.463 5.307 C 12.554 5.269 12.651 5.25 12.75 5.25 C 12.849 5.25 12.946 5.269 13.037 5.307 C 13.128 5.344 13.211 5.4 13.281 5.469 C 13.35 5.539 13.406 5.622 13.443 5.713 C 13.481 5.804 13.5 5.901 13.5 6 C 13.5 6.099 13.481 6.196 13.443 6.287 C 13.406 6.378 13.35 6.461 13.281 6.531 L 8.031 11.781 C 7.961 11.85 7.878 11.906 7.787 11.943 C 7.696 11.981 7.599 12.001 7.5 12.001 C 7.401 12.001 7.304 11.981 7.213 11.943 C 7.122 11.906 7.039 11.85 6.969 11.781 L 4.719 9.531 Z" fill="currentColor" fill-rule="nonzero"></path>
</svg>