<svg xmlns="http://www.w3.org/2000/svg" width="21.589" height="17.500" viewBox="0 0 21.589 17.500" fill="none">
  <path d="M 12.392 1.888 C 12.085 2.288 11.736 2.911 11.217 3.842 L 10.955 4.312 C 10.937 4.343 10.92 4.374 10.903 4.405 C 10.668 4.828 10.45 5.221 10.096 5.49 C 9.739 5.761 9.304 5.859 8.845 5.961 C 8.812 5.969 8.779 5.976 8.745 5.984 L 8.236 6.099 C 7.227 6.328 6.557 6.481 6.103 6.66 C 5.662 6.834 5.618 6.957 5.601 7.011 C 5.582 7.073 5.553 7.215 5.818 7.635 C 6.088 8.064 6.546 8.603 7.233 9.406 L 7.58 9.812 C 7.602 9.838 7.624 9.864 7.646 9.89 C 7.962 10.257 8.251 10.594 8.384 11.021 C 8.516 11.446 8.472 11.89 8.424 12.381 C 8.42 12.415 8.417 12.45 8.413 12.484 L 8.361 13.026 C 8.257 14.096 8.189 14.817 8.212 15.333 C 8.235 15.847 8.342 15.935 8.377 15.961 L 8.378 15.962 C 8.403 15.981 8.497 16.054 8.944 15.926 C 9.412 15.792 10.041 15.505 10.986 15.07 L 11.463 14.85 C 11.495 14.836 11.526 14.821 11.558 14.806 C 11.984 14.609 12.392 14.42 12.839 14.42 C 13.286 14.42 13.694 14.609 14.12 14.806 C 14.152 14.821 14.184 14.836 14.216 14.85 L 14.692 15.07 C 15.637 15.505 16.266 15.792 16.734 15.926 C 17.181 16.054 17.275 15.981 17.3 15.962 L 17.301 15.961 C 17.336 15.935 17.443 15.847 17.466 15.333 C 17.489 14.817 17.421 14.096 17.317 13.026 L 17.265 12.484 C 17.261 12.45 17.258 12.415 17.254 12.381 C 17.206 11.89 17.162 11.446 17.294 11.021 C 17.427 10.594 17.716 10.257 18.032 9.89 C 18.054 9.864 18.076 9.838 18.098 9.812 L 18.445 9.406 C 19.132 8.603 19.59 8.064 19.86 7.635 C 20.125 7.215 20.096 7.073 20.077 7.011 C 20.06 6.957 20.016 6.834 19.575 6.66 C 19.121 6.481 18.451 6.328 17.442 6.099 L 16.933 5.984 C 16.899 5.976 16.866 5.969 16.833 5.961 C 16.375 5.859 15.939 5.761 15.582 5.49 C 15.228 5.221 15.01 4.828 14.775 4.405 C 14.758 4.374 14.741 4.343 14.724 4.312 L 14.461 3.842 C 13.943 2.911 13.593 2.288 13.286 1.888 C 12.988 1.498 12.864 1.5 12.841 1.5 L 12.839 1.5 L 12.837 1.5 C 12.814 1.5 12.69 1.498 12.392 1.888 Z M 11.201 0.976 C 11.59 0.467 12.101 0 12.839 0 C 13.577 0 14.088 0.467 14.477 0.976 C 14.859 1.474 15.261 2.195 15.742 3.058 L 16.034 3.582 C 16.354 4.157 16.419 4.242 16.489 4.295 C 16.554 4.344 16.64 4.38 17.264 4.521 L 17.834 4.65 C 18.766 4.861 19.55 5.038 20.125 5.265 C 20.727 5.502 21.292 5.866 21.509 6.565 C 21.724 7.256 21.477 7.883 21.13 8.435 C 20.794 8.968 20.262 9.59 19.624 10.335 L 19.585 10.381 L 19.238 10.787 C 18.816 11.28 18.756 11.373 18.727 11.467 C 18.696 11.564 18.694 11.682 18.758 12.34 L 18.816 12.941 C 18.912 13.936 18.993 14.765 18.964 15.4 C 18.935 16.048 18.787 16.716 18.208 17.156 C 17.617 17.604 16.937 17.544 16.321 17.368 C 15.728 17.198 14.994 16.86 14.123 16.459 L 13.588 16.213 C 13.002 15.943 12.914 15.92 12.839 15.92 C 12.764 15.92 12.676 15.943 12.09 16.213 L 11.555 16.459 C 10.684 16.86 9.95 17.198 9.357 17.368 C 8.741 17.544 8.061 17.604 7.47 17.156 C 6.891 16.716 6.743 16.048 6.714 15.4 C 6.685 14.765 6.766 13.936 6.862 12.941 L 6.92 12.34 C 6.984 11.682 6.982 11.564 6.952 11.467 C 6.922 11.373 6.862 11.28 6.44 10.787 L 6.054 10.335 C 5.417 9.59 4.884 8.968 4.548 8.435 C 4.201 7.883 3.954 7.256 4.169 6.565 C 4.386 5.866 4.951 5.502 5.553 5.265 C 6.128 5.038 6.912 4.861 7.844 4.65 L 8.414 4.521 C 9.038 4.38 9.124 4.344 9.19 4.295 C 9.259 4.242 9.324 4.157 9.644 3.582 L 9.936 3.058 C 10.418 2.195 10.819 1.474 11.201 0.976 Z M 7.495 1.952 C 5.514 1.381 3.388 1.683 1.337 2.884 L 1.129 3.006 C 0.772 3.215 0.312 3.095 0.103 2.738 C -0.106 2.38 0.014 1.921 0.371 1.711 L 0.579 1.59 C 2.94 0.207 5.487 -0.188 7.911 0.511 L 8.119 0.571 C 8.517 0.686 8.746 1.101 8.632 1.499 C 8.517 1.897 8.101 2.127 7.703 2.012 L 7.495 1.952 Z M 3.586 6.686 C 3.621 7.099 3.315 7.462 2.903 7.497 C 2.749 7.51 2.632 7.518 2.534 7.524 C 2.356 7.535 2.241 7.543 2.089 7.572 C 1.893 7.609 1.637 7.689 1.174 7.921 C 0.804 8.106 0.353 7.956 0.168 7.585 C -0.017 7.215 0.133 6.764 0.504 6.579 C 1.041 6.311 1.43 6.171 1.806 6.099 C 2.053 6.051 2.308 6.035 2.537 6.02 C 2.621 6.014 2.7 6.009 2.775 6.003 C 3.188 5.968 3.551 6.274 3.586 6.686 Z M 4.668 12.606 C 3.484 12.328 2.237 12.604 1.303 13.339 C 0.978 13.595 0.506 13.539 0.25 13.214 C -0.006 12.889 0.049 12.417 0.375 12.161 C 1.673 11.138 3.389 10.766 5.01 11.146 C 5.413 11.24 5.664 11.644 5.569 12.047 C 5.475 12.45 5.071 12.7 4.668 12.606 Z" fill="currentColor" fill-rule="evenodd"></path>
</svg>
