<svg xmlns="http://www.w3.org/2000/svg" width="22.500" height="22.500" viewBox="0 0 22.500 22.500" fill="none">
  <path d="M 10.5 3 L 10.5 0.75 C 10.5 0.551 10.579 0.36 10.72 0.22 C 10.86 0.079 11.051 0 11.25 0 C 11.449 0 11.64 0.079 11.78 0.22 C 11.921 0.36 12 0.551 12 0.75 L 12 3 C 12 3.199 11.921 3.39 11.78 3.53 C 11.64 3.671 11.449 3.75 11.25 3.75 C 11.051 3.75 10.86 3.671 10.72 3.53 C 10.579 3.39 10.5 3.199 10.5 3 Z M 17.25 11.25 C 17.25 12.437 16.898 13.597 16.239 14.583 C 15.58 15.57 14.642 16.339 13.546 16.793 C 12.45 17.247 11.243 17.366 10.079 17.135 C 8.916 16.903 7.846 16.332 7.007 15.493 C 6.168 14.654 5.597 13.584 5.365 12.421 C 5.134 11.257 5.253 10.05 5.707 8.954 C 6.161 7.858 6.93 6.92 7.917 6.261 C 8.903 5.602 10.063 5.25 11.25 5.25 C 12.841 5.252 14.366 5.884 15.491 7.009 C 16.616 8.134 17.248 9.659 17.25 11.25 Z M 15.75 11.25 C 15.75 10.36 15.486 9.49 14.992 8.75 C 14.497 8.01 13.794 7.433 12.972 7.093 C 12.15 6.752 11.245 6.663 10.372 6.836 C 9.499 7.01 8.697 7.439 8.068 8.068 C 7.439 8.697 7.01 9.499 6.836 10.372 C 6.663 11.245 6.752 12.15 7.093 12.972 C 7.433 13.794 8.01 14.497 8.75 14.992 C 9.49 15.486 10.36 15.75 11.25 15.75 C 12.443 15.749 13.587 15.274 14.431 14.431 C 15.274 13.587 15.749 12.443 15.75 11.25 Z M 4.719 5.781 C 4.86 5.921 5.051 6 5.25 6 C 5.449 6 5.64 5.921 5.781 5.781 C 5.921 5.64 6 5.449 6 5.25 C 6 5.051 5.921 4.86 5.781 4.719 L 4.281 3.219 C 4.14 3.079 3.949 3 3.75 3 C 3.551 3 3.36 3.079 3.219 3.219 C 3.079 3.36 3 3.551 3 3.75 C 3 3.949 3.079 4.14 3.219 4.281 L 4.719 5.781 Z M 4.719 16.719 L 3.219 18.219 C 3.079 18.36 3 18.551 3 18.75 C 3 18.949 3.079 19.14 3.219 19.281 C 3.36 19.421 3.551 19.5 3.75 19.5 C 3.949 19.5 4.14 19.421 4.281 19.281 L 5.781 17.781 C 5.85 17.711 5.906 17.628 5.943 17.537 C 5.981 17.446 6 17.349 6 17.25 C 6 17.151 5.981 17.054 5.943 16.963 C 5.906 16.872 5.85 16.789 5.781 16.719 C 5.711 16.65 5.628 16.594 5.537 16.557 C 5.446 16.519 5.349 16.5 5.25 16.5 C 5.151 16.5 5.054 16.519 4.963 16.557 C 4.872 16.594 4.789 16.65 4.719 16.719 Z M 17.25 6 C 17.349 6 17.446 5.981 17.537 5.943 C 17.628 5.905 17.711 5.85 17.781 5.781 L 19.281 4.281 C 19.421 4.14 19.5 3.949 19.5 3.75 C 19.5 3.551 19.421 3.36 19.281 3.219 C 19.14 3.079 18.949 3 18.75 3 C 18.551 3 18.36 3.079 18.219 3.219 L 16.719 4.719 C 16.614 4.824 16.543 4.958 16.514 5.104 C 16.485 5.249 16.5 5.4 16.557 5.537 C 16.613 5.674 16.71 5.791 16.833 5.874 C 16.956 5.956 17.102 6 17.25 6 Z M 17.781 16.719 C 17.64 16.579 17.449 16.5 17.25 16.5 C 17.051 16.5 16.86 16.579 16.719 16.719 C 16.579 16.86 16.5 17.051 16.5 17.25 C 16.5 17.449 16.579 17.64 16.719 17.781 L 18.219 19.281 C 18.289 19.35 18.372 19.406 18.463 19.443 C 18.554 19.481 18.651 19.5 18.75 19.5 C 18.849 19.5 18.946 19.481 19.037 19.443 C 19.128 19.406 19.211 19.35 19.281 19.281 C 19.35 19.211 19.406 19.128 19.443 19.037 C 19.481 18.946 19.5 18.849 19.5 18.75 C 19.5 18.651 19.481 18.554 19.443 18.463 C 19.406 18.372 19.35 18.289 19.281 18.219 L 17.781 16.719 Z M 3.75 11.25 C 3.75 11.051 3.671 10.86 3.53 10.72 C 3.39 10.579 3.199 10.5 3 10.5 L 0.75 10.5 C 0.551 10.5 0.36 10.579 0.22 10.72 C 0.079 10.86 0 11.051 0 11.25 C 0 11.449 0.079 11.64 0.22 11.78 C 0.36 11.921 0.551 12 0.75 12 L 3 12 C 3.199 12 3.39 11.921 3.53 11.78 C 3.671 11.64 3.75 11.449 3.75 11.25 Z M 11.25 18.75 C 11.051 18.75 10.86 18.829 10.72 18.97 C 10.579 19.11 10.5 19.301 10.5 19.5 L 10.5 21.75 C 10.5 21.949 10.579 22.14 10.72 22.28 C 10.86 22.421 11.051 22.5 11.25 22.5 C 11.449 22.5 11.64 22.421 11.78 22.28 C 11.921 22.14 12 21.949 12 21.75 L 12 19.5 C 12 19.301 11.921 19.11 11.78 18.97 C 11.64 18.829 11.449 18.75 11.25 18.75 Z M 21.75 10.5 L 19.5 10.5 C 19.301 10.5 19.11 10.579 18.97 10.72 C 18.829 10.86 18.75 11.051 18.75 11.25 C 18.75 11.449 18.829 11.64 18.97 11.78 C 19.11 11.921 19.301 12 19.5 12 L 21.75 12 C 21.949 12 22.14 11.921 22.28 11.78 C 22.421 11.64 22.5 11.449 22.5 11.25 C 22.5 11.051 22.421 10.86 22.28 10.72 C 22.14 10.579 21.949 10.5 21.75 10.5 Z" fill="currentColor" fill-rule="nonzero"></path>
</svg>
