<svg xmlns="http://www.w3.org/2000/svg" width="19.501" height="19.503" viewBox="0 0 19.501 19.503" fill="none">
  <path d="M 19.35 18.302 C 19.434 18.414 19.485 18.546 19.498 18.685 C 19.51 18.824 19.484 18.964 19.422 19.088 C 19.359 19.213 19.263 19.318 19.145 19.391 C 19.026 19.465 18.889 19.503 18.75 19.503 L 0.75 19.503 C 0.611 19.503 0.474 19.464 0.356 19.391 C 0.237 19.318 0.141 19.213 0.079 19.089 C 0.017 18.964 -0.009 18.825 0.003 18.686 C 0.016 18.547 0.066 18.415 0.15 18.303 C 0.814 17.413 1.7 16.712 2.719 16.27 C 2.16 15.76 1.769 15.093 1.596 14.357 C 1.423 13.621 1.477 12.849 1.75 12.144 C 2.024 11.439 2.504 10.833 3.128 10.406 C 3.752 9.979 4.49 9.75 5.247 9.75 C 6.003 9.75 6.742 9.979 7.366 10.406 C 7.99 10.833 8.47 11.439 8.743 12.144 C 9.016 12.849 9.07 13.621 8.897 14.357 C 8.725 15.093 8.333 15.76 7.775 16.27 C 8.51 16.588 9.178 17.042 9.743 17.61 C 10.309 17.042 10.977 16.588 11.712 16.27 C 11.154 15.76 10.762 15.093 10.589 14.357 C 10.417 13.621 10.47 12.849 10.744 12.144 C 11.017 11.439 11.497 10.833 12.121 10.406 C 12.745 9.979 13.484 9.75 14.24 9.75 C 14.996 9.75 15.735 9.979 16.359 10.406 C 16.983 10.833 17.463 11.439 17.737 12.144 C 18.01 12.849 18.064 13.621 17.891 14.357 C 17.718 15.093 17.327 15.76 16.768 16.27 C 17.792 16.709 18.682 17.41 19.35 18.302 Z M 0.3 9.603 C 0.379 9.662 0.468 9.705 0.564 9.73 C 0.659 9.754 0.759 9.76 0.856 9.746 C 0.954 9.732 1.047 9.699 1.132 9.649 C 1.217 9.598 1.291 9.532 1.35 9.453 C 1.804 8.848 2.393 8.356 3.07 8.018 C 3.747 7.679 4.493 7.503 5.25 7.503 C 6.007 7.503 6.753 7.679 7.43 8.018 C 8.107 8.356 8.696 8.848 9.15 9.453 C 9.22 9.546 9.31 9.622 9.415 9.674 C 9.519 9.726 9.634 9.753 9.75 9.753 C 9.866 9.753 9.981 9.726 10.085 9.674 C 10.19 9.622 10.28 9.546 10.35 9.453 C 10.804 8.848 11.393 8.356 12.07 8.018 C 12.747 7.679 13.493 7.503 14.25 7.503 C 15.007 7.503 15.753 7.679 16.43 8.018 C 17.107 8.356 17.696 8.848 18.15 9.453 C 18.209 9.532 18.283 9.598 18.368 9.649 C 18.453 9.699 18.547 9.732 18.644 9.746 C 18.742 9.759 18.841 9.754 18.937 9.729 C 19.032 9.705 19.122 9.662 19.2 9.603 C 19.279 9.544 19.346 9.47 19.396 9.385 C 19.446 9.3 19.479 9.206 19.493 9.109 C 19.507 9.011 19.501 8.912 19.477 8.816 C 19.452 8.721 19.409 8.631 19.35 8.552 C 18.686 7.662 17.8 6.961 16.781 6.52 C 17.34 6.01 17.731 5.343 17.904 4.607 C 18.077 3.871 18.023 3.099 17.75 2.394 C 17.476 1.689 16.996 1.083 16.372 0.656 C 15.748 0.229 15.01 0 14.253 0 C 13.497 0 12.758 0.229 12.134 0.656 C 11.51 1.083 11.03 1.689 10.757 2.394 C 10.484 3.099 10.43 3.871 10.603 4.607 C 10.775 5.343 11.167 6.01 11.725 6.52 C 10.99 6.838 10.322 7.292 9.757 7.86 C 9.191 7.292 8.523 6.838 7.788 6.52 C 8.346 6.01 8.738 5.343 8.911 4.607 C 9.083 3.871 9.03 3.099 8.756 2.394 C 8.483 1.689 8.003 1.083 7.379 0.656 C 6.755 0.229 6.016 0 5.26 0 C 4.504 0 3.765 0.229 3.141 0.656 C 2.517 1.083 2.037 1.689 1.763 2.394 C 1.49 3.099 1.436 3.871 1.609 4.607 C 1.782 5.343 2.173 6.01 2.732 6.52 C 1.708 6.96 0.818 7.661 0.15 8.553 C 0.091 8.632 0.048 8.722 0.023 8.817 C -0.001 8.913 -0.006 9.012 0.008 9.109 C 0.021 9.207 0.054 9.301 0.105 9.385 C 0.155 9.47 0.221 9.544 0.3 9.603 Z" fill="currentColor" fill-rule="nonzero"></path>
</svg>