<svg xmlns="http://www.w3.org/2000/svg" width="22.503" height="16.527" viewBox="0 0 22.503 16.527" fill="none">
  <path d="M 22.2 9.599 C 22.121 9.658 22.032 9.701 21.936 9.726 C 21.841 9.75 21.742 9.756 21.644 9.742 C 21.547 9.728 21.453 9.695 21.368 9.645 C 21.283 9.594 21.209 9.528 21.15 9.449 C 20.698 8.842 20.11 8.349 19.432 8.01 C 18.755 7.671 18.008 7.496 17.25 7.499 C 17.103 7.499 16.959 7.456 16.836 7.374 C 16.713 7.293 16.617 7.177 16.559 7.041 C 16.52 6.948 16.5 6.849 16.5 6.749 C 16.5 6.649 16.52 6.55 16.559 6.458 C 16.617 6.322 16.713 6.206 16.836 6.124 C 16.959 6.043 17.103 5.999 17.25 5.999 C 17.671 5.999 18.083 5.881 18.441 5.658 C 18.798 5.436 19.085 5.117 19.27 4.74 C 19.456 4.362 19.531 3.94 19.488 3.521 C 19.446 3.102 19.287 2.704 19.029 2.371 C 18.771 2.039 18.425 1.785 18.031 1.639 C 17.636 1.493 17.208 1.461 16.796 1.545 C 16.384 1.63 16.004 1.829 15.699 2.119 C 15.394 2.409 15.177 2.779 15.072 3.187 C 15.047 3.282 15.004 3.372 14.944 3.45 C 14.885 3.529 14.811 3.595 14.726 3.646 C 14.641 3.696 14.547 3.728 14.45 3.742 C 14.352 3.756 14.253 3.75 14.157 3.726 C 14.062 3.701 13.972 3.658 13.894 3.599 C 13.815 3.539 13.749 3.465 13.699 3.38 C 13.649 3.295 13.616 3.202 13.602 3.104 C 13.588 3.006 13.594 2.907 13.618 2.812 C 13.764 2.247 14.04 1.724 14.424 1.284 C 14.808 0.844 15.289 0.5 15.829 0.279 C 16.369 0.058 16.953 -0.034 17.535 0.011 C 18.117 0.055 18.681 0.235 19.181 0.536 C 19.681 0.836 20.104 1.25 20.417 1.743 C 20.729 2.236 20.922 2.795 20.98 3.375 C 21.039 3.956 20.961 4.542 20.753 5.087 C 20.544 5.633 20.212 6.122 19.782 6.516 C 20.801 6.957 21.688 7.658 22.353 8.548 C 22.412 8.627 22.455 8.717 22.479 8.813 C 22.504 8.908 22.509 9.008 22.495 9.105 C 22.481 9.203 22.447 9.297 22.397 9.382 C 22.346 9.466 22.279 9.54 22.2 9.599 Z M 17.149 15.374 C 17.203 15.46 17.24 15.555 17.256 15.655 C 17.273 15.755 17.269 15.857 17.245 15.955 C 17.22 16.053 17.177 16.146 17.116 16.227 C 17.055 16.307 16.979 16.375 16.891 16.426 C 16.804 16.476 16.707 16.509 16.607 16.521 C 16.506 16.533 16.404 16.525 16.307 16.497 C 16.21 16.469 16.12 16.421 16.041 16.357 C 15.963 16.293 15.898 16.214 15.852 16.124 C 15.379 15.324 14.706 14.661 13.899 14.201 C 13.092 13.74 12.179 13.498 11.25 13.498 C 10.321 13.498 9.408 13.74 8.601 14.201 C 7.794 14.661 7.121 15.324 6.649 16.124 C 6.602 16.214 6.538 16.293 6.459 16.357 C 6.381 16.421 6.291 16.469 6.193 16.497 C 6.096 16.525 5.994 16.533 5.894 16.521 C 5.794 16.509 5.697 16.476 5.609 16.426 C 5.522 16.375 5.445 16.307 5.384 16.227 C 5.324 16.146 5.28 16.053 5.256 15.955 C 5.232 15.857 5.228 15.755 5.244 15.655 C 5.261 15.555 5.297 15.46 5.352 15.374 C 6.079 14.125 7.187 13.142 8.515 12.569 C 7.768 11.997 7.219 11.206 6.945 10.306 C 6.671 9.406 6.686 8.443 6.988 7.552 C 7.29 6.661 7.864 5.887 8.628 5.339 C 9.393 4.791 10.31 4.496 11.25 4.496 C 12.191 4.496 13.108 4.791 13.872 5.339 C 14.637 5.887 15.21 6.661 15.512 7.552 C 15.814 8.443 15.829 9.406 15.555 10.306 C 15.282 11.206 14.733 11.997 13.986 12.569 C 15.313 13.142 16.422 14.125 17.149 15.374 Z M 11.25 11.999 C 11.844 11.999 12.424 11.823 12.917 11.494 C 13.41 11.164 13.795 10.695 14.022 10.147 C 14.249 9.599 14.308 8.996 14.193 8.414 C 14.077 7.832 13.791 7.297 13.372 6.878 C 12.952 6.458 12.417 6.173 11.836 6.057 C 11.254 5.941 10.65 6 10.102 6.228 C 9.554 6.455 9.086 6.839 8.756 7.332 C 8.426 7.826 8.25 8.406 8.25 8.999 C 8.25 9.795 8.566 10.558 9.129 11.121 C 9.692 11.683 10.455 11.999 11.25 11.999 Z M 6 6.749 C 6 6.55 5.921 6.36 5.781 6.219 C 5.64 6.078 5.449 5.999 5.25 5.999 C 4.829 5.999 4.417 5.881 4.06 5.658 C 3.703 5.436 3.415 5.117 3.23 4.74 C 3.045 4.362 2.969 3.94 3.012 3.521 C 3.055 3.102 3.214 2.704 3.472 2.371 C 3.729 2.039 4.075 1.785 4.47 1.639 C 4.865 1.493 5.292 1.461 5.705 1.545 C 6.117 1.63 6.497 1.829 6.802 2.119 C 7.106 2.409 7.324 2.779 7.429 3.187 C 7.479 3.379 7.603 3.544 7.774 3.646 C 7.946 3.747 8.15 3.775 8.343 3.726 C 8.536 3.676 8.701 3.552 8.802 3.38 C 8.903 3.209 8.932 3.004 8.882 2.812 C 8.736 2.247 8.46 1.724 8.076 1.284 C 7.693 0.844 7.212 0.5 6.671 0.279 C 6.131 0.058 5.547 -0.034 4.965 0.011 C 4.383 0.055 3.82 0.235 3.32 0.536 C 2.82 0.836 2.396 1.25 2.084 1.743 C 1.772 2.236 1.579 2.795 1.52 3.375 C 1.462 3.956 1.54 4.542 1.748 5.087 C 1.956 5.633 2.289 6.122 2.719 6.516 C 1.7 6.958 0.815 7.658 0.15 8.548 C 0.031 8.707 -0.021 8.907 0.007 9.104 C 0.036 9.301 0.141 9.479 0.3 9.599 C 0.459 9.718 0.659 9.77 0.856 9.742 C 1.053 9.713 1.231 9.608 1.35 9.449 C 1.802 8.842 2.391 8.349 3.068 8.01 C 3.746 7.671 4.493 7.496 5.25 7.499 C 5.449 7.499 5.64 7.42 5.781 7.28 C 5.921 7.139 6 6.948 6 6.749 Z" fill="currentColor" fill-rule="nonzero"></path>
</svg>